<?xml version="1.0" encoding="utf-8"?>
<!-- Generator: Adobe Illustrator 24.1.2, SVG Export Plug-In . SVG Version: 6.00 Build 0)  -->
<svg version="1.1"
	 id="svg2" inkscape:version="0.92.4 (5da689c313, 2019-01-14)" sodipodi:docname="cruzeiro-logo.svg" xmlns:cc="http://creativecommons.org/ns#" xmlns:dc="http://purl.org/dc/elements/1.1/" xmlns:inkscape="http://www.inkscape.org/namespaces/inkscape" xmlns:rdf="http://www.w3.org/1999/02/22-rdf-syntax-ns#" xmlns:sodipodi="http://sodipodi.sourceforge.net/DTD/sodipodi-0.dtd" xmlns:svg="http://www.w3.org/2000/svg"
	 xmlns="http://www.w3.org/2000/svg" xmlns:xlink="http://www.w3.org/1999/xlink" x="0px" y="0px" viewBox="0 0 1328.1 1600"
	 style="enable-background:new 0 0 1328.1 1600;" xml:space="preserve">
<style type="text/css">
	.st0{fill:#EFB81D;}
	.st1{fill:#FFFFFF;}
	.st2{fill:#0063AF;}
</style>
<g id="logo">
	<g id="g12" transform="matrix(2.4832558,0,0,2.4832558,-1305.9887,-545.41834)">
	</g>
	<g>
		<g id="g370">
			<g id="g376" transform="translate(631.8066,375.5692)">
				<path id="path378" inkscape:connector-curvature="0" class="st0" d="M34.1-101.5L34.1-101.5L34.1-101.5h-3.8l0,0l0,0
					c-12.9,0.1-45.1,1.6-48.6,2C-79-94.6-137.9-81.3-193-61.3c2,2.3,14.4,15.5,21.7,25.3c64.1-20.7,132.5-32.1,203.4-32.3l0,0l0,0
					l0,0l0,0l0,0c71.2,0.2,139.6,11.6,203.6,32.4c7.2-9.8,19.6-23.1,21.7-25.3c-55-20-113.8-33.2-174.6-38.2
					C79.2-99.9,47.2-101.4,34.1-101.5 M-140-53c-4.6,0-8.3-3.7-8.3-8.3c0-4.5,3.7-8.2,8.3-8.2c4.5,0,8.3,3.7,8.3,8.2
					C-131.7-56.6-135.5-53-140-53 M-80.9-66.8l-28.8-2.6l24.1-12.2l29.2,1.9L-80.9-66.8z M-13.2-82.3l-1.8,5.5
					c-0.1,0.3-0.3,0.6-0.8,0.9l-5.2,2.6c-0.1,0.1-0.3,0.1-0.5,0.1h-0.2c0,0.1-0.1,0.1-0.2,0.1c-0.1,0-0.3,0-0.4-0.1l-5.3-1.7
					c-0.4-0.1-0.6-0.4-0.9-0.8l-2.6-5c-0.1-0.2-0.1-0.4-0.1-0.6c0-0.2,0-0.4,0.1-0.8l1.8-5.6c0.1-0.3,0.4-0.6,0.8-0.8l5.2-2.6
					c0.2-0.1,0.3-0.1,0.5-0.1c0.1,0,0.3,0,0.5,0l5.5,1.8c0.3,0.1,0.6,0.3,0.8,0.6l2.6,5.2C-13.1-82.9-13.1-82.6-13.2-82.3
					 M22.3-76.4l9.8-16.8l9.8,16.8H22.3z M204.5-69.5c4.5,0,8.3,3.7,8.3,8.2c0,4.6-3.7,8.3-8.3,8.3c-4.5,0-8.3-3.7-8.3-8.3
					C196.2-65.8,200-69.5,204.5-69.5 M150-81.5l24.1,12.1l-28.8,2.6l-24.6-12.7L150-81.5z M87.3-91.1c0.2,0,0.4,0,0.6,0.1l5.2,2.6
					c0.3,0.1,0.6,0.4,0.8,0.8l1.8,5.6c-0.1,0.3-0.1,0.5-0.1,0.9c0,0.2-0.1,0.4-0.1,0.6l-2.5,5c-0.2,0.3-0.4,0.5-0.9,0.8l-5.3,1.7
					C86.7-73,86.5-73,86.4-73c-0.1,0-0.2,0-0.2-0.1H86c-0.2,0-0.4,0-0.5-0.1l-5.2-2.6c-0.4-0.2-0.6-0.4-0.8-0.9l-1.8-5.5
					c-0.1-0.3-0.1-0.8,0.1-1.1l2.6-5.2c0.2-0.3,0.4-0.5,0.9-0.6l5.5-1.8C87-91.1,87.1-91.1,87.3-91.1"/>
			</g>
			<g id="g380" transform="translate(644.3986,390.7122)">
				<path id="path382" inkscape:connector-curvature="0" class="st0" d="M153.4-275.1c-22.6-34.9-70.3-60.3-120.5-61.8
					c-1.6-2.6-4-4.7-6.8-6v-14.3H39v-12.2H26.1v-14.4h-6.5l0,0h-6.5v14.4H0.2v12.2h12.9v14.3c-2.9,1.3-5.3,3.3-6.9,6
					c-50.2,1.5-97.9,26.8-120.5,61.8C-277.5-264.2-259.3-151-259.1-149.3c2.8,21.9,15.4,43,36.4,59.1c3.7,3,7.1,5.4,10.7,7.7
					c35.2-13,82.7-27.6,134.5-35.1c32.7-4.7,65.7-7.1,97.1-8.1c31.4,1,64.6,3.3,97.1,8.1c52,7.5,99.4,22.1,134.6,35.1
					c3.6-2.3,7-4.6,10.7-7.7c21-16.1,33.7-37.3,36.4-59.1C298.7-151,316.8-264.2,153.4-275.1 M155.5-215.9
					c-15.8-72.3-78.3-90.3-112.7-96.1c-0.2-1.5-1.1-5.9-1.3-7.4C153-304.2,155.5-215.9,155.5-215.9 M-2.1-319.4
					c-0.3,1.5-1.1,5.9-1.3,7.4c-34.5,5.8-96.9,23.8-112.7,96.1C-116.2-215.9-113.7-304.2-2.1-319.4 M-230.9-158.7
					c-3.1,0.8-5.8,2.3-8.3,4.3c-0.9-16.9,4.4-34.2,15.8-51c34.8-48.3,102.1-48.6,102.1-48.6c-0.6,0-66.9,7.3-94.1,49.3
					C-226.4-188-231.5-172.5-230.9-158.7 M-158.7-120.2c3.3-14.9-6.9-26.4-22.2-22.7c-12.6,3-20.6,20.4-6,30.9
					c-5.2,19.2-32.1,12.1-27.1-2.2c1.5-3.4,2.9-6.3,4.1-8.7c2.4-3.8,3.8-8.3,3.8-13.3c0-10-5.8-18.4-13.8-21.6
					c9.1-52.7,51.2-75,91.9-82.3c-6.5,16-7.2,48.7-7.2,48.8l0,0c-10.7,5.6-17.9,16.2-17.9,28.3c0,12.4,7.4,23.2,18.5,28.7
					c0.8,0.4,1.4,0.4,1.6,1.9C-129-116.7-151.9-108.1-158.7-120.2 M-116.4-147.8c-8.4,0-15.2-6.6-15.2-14.6
					c0-8.1,6.8-14.6,15.2-14.6c8.4,0,15.2,6.6,15.2,14.6C-101.2-154.3-108-147.8-116.4-147.8 M-22.2-151.2
					c7.1-12.3-1.2-30.6-19.8-29.7c-17.8,0.9-27.7,19.8-16,32.9c-7,12.7-21.4,12.9-29.5,3c3.7-5.2,5.9-11.3,5.9-18
					c0-2.9-0.4-5.6-1.2-8.3c0-0.1,0-0.1,0-0.2c0-0.1,0-0.1-0.1-0.2c-0.3-1.1-0.6-2.2-1.1-3.1c-2.2-5.3-5.6-9.7-10-13
					c-4.5-3.6-9.9-6-16-7.2c10.2-55.8,42.4-86.4,106.4-95.3c1.8,16.5,7.3,29.4,16,33.5c3.1,6.6-4.2,10.7-5.3,11.3
					c-10.1,6.4-10.5,22.2,0.6,28.2c-28.5,5.6-34,51-4,65.6C-6.4-140.9-21.6-144.4-22.2-151.2 M19.7-164C9-164,0.4-173.4,0.4-184.9
					s8.6-20.9,19.3-20.9S39-196.5,39-184.9S30.3-164,19.7-164 M123.5-174.8c-0.4,1-0.8,2-1.1,3.1c0,0.1-0.1,0.1-0.1,0.2
					c0,0.1,0,0.1,0,0.2c-0.8,2.7-1.2,5.4-1.2,8.3c0,6.7,2.2,12.8,5.8,18c-8.1,9.9-22.5,9.7-29.5-3c11.7-13.1,1.8-32-16-32.9
					c-18.6-0.9-26.9,17.5-19.8,29.7c-0.6,6.8-15.8,10.2-25.8-0.3c29.9-14.7,24.5-60-4-65.6c11.1-6,10.8-21.8,0.6-28.2
					c-1.1-0.6-8.4-4.7-5.4-11.3c8.6-4.1,14.1-17.1,16-33.5c63.9,8.8,96.1,39.4,106.4,95.3c-6,1.2-11.4,3.7-16,7.2
					C129.1-184.5,125.7-180.1,123.5-174.8 M155.7-147.8c-8.4,0-15.2-6.6-15.2-14.6c0-8.1,6.8-14.6,15.2-14.6
					c8.4,0,15.2,6.6,15.2,14.6C170.9-154.3,164.1-147.8,155.7-147.8 M249.2-122.9c1.2,2.5,2.6,5.3,4.1,8.7
					c5.1,14.2-21.9,21.3-27.1,2.2c14.6-10.7,6.6-27.9-6-30.9c-15.4-3.7-25.7,8-22.3,22.7c-6.7,12.2-29.6,3.6-25.8-12.1
					c0.2-1.5,0.8-1.5,1.6-1.9c11-5.6,18.5-16.3,18.5-28.7c0-12.1-7.2-22.6-17.9-28.3l0,0c0-0.1-0.9-32.9-7.2-48.8
					c40.9,7.3,82.9,29.6,92,82.3c-8.1,3.1-13.8,11.5-13.8,21.6C245.4-131.2,246.8-126.7,249.2-122.9 M278.5-154.4
					c-2.4-2-5.2-3.6-8.3-4.3c0.5-13.8-4.5-29.3-15.5-46.1c-27.2-41.8-93.4-49.1-94.1-49.3c0,0,67.3,0.3,102.1,48.6
					C274.1-188.6,279.4-171.3,278.5-154.4"/>
			</g>
			<g id="g384" transform="translate(691.9243,310.1047)">
				<path id="path386" inkscape:connector-curvature="0" class="st1" d="M603.5,649.5c0,348.7-282.7,631.4-631.4,631.4
					s-631.4-282.7-631.4-631.4S-376.6,18.1-27.9,18.1C320.9,18.1,603.5,300.8,603.5,649.5"/>
			</g>
			<g id="g388" transform="translate(674.5409,352.8586)">
				<path id="path390" inkscape:connector-curvature="0" class="st2" d="M438.9,159.1C323.6,44.3,164.6-26.9-10.5-26.9l0,0
					c-175.1,0-334.1,71.1-449.4,185.9s-186.7,273.2-186.7,447.7l0,0c0,174.5,71.5,332.9,186.7,447.7s274.2,185.9,449.4,185.9l0,0
					l0,0c175.1,0,334.1-71.1,449.4-185.9s186.7-273.2,186.7-447.7C625.5,432.2,554.2,273.9,438.9,159.1 M606.9,606.7L606.9,606.7
					c0,169.3-69.3,323.1-181.1,434.5c-111.9,111.3-266.1,180.4-436.2,180.4l0,0l0,0c-170,0-324.3-69.1-436.2-180.4
					s-181.3-265-181.3-434.5l0,0c0-169.3,69.3-323,181.2-434.5C-334.8,60.9-180.6-8.2-10.5-8.2l0,0c170.1,0,324.3,69.1,436.2,180.4
					C537.5,283.7,606.9,437.4,606.9,606.7"/>
			</g>
			<g id="g392" transform="translate(631.6255,352.5989)">
				<path id="path394" inkscape:connector-curvature="0" class="st2" d="M32.4,162c-243.9,0-442.8,199.8-442.8,444.9
					s199,444.9,442.8,444.9s442.9-199.9,442.9-444.9S276.3,162,32.4,162"/>
			</g>
		</g>
	</g>
	<path id="path398" inkscape:connector-curvature="0" class="st1" d="M675.2,1182l17.4,53.4h56l-45.4,33l17.4,53.4l-45.4-33
		l-45.4,33l17.4-53.4l0,0l-45.4-33h56L675.2,1182z"/>
	<path id="path402" inkscape:connector-curvature="0" class="st1" d="M914.2,810.9l17.4,53.4h56.2l-45.4,33l17.4,53.4l-45.4-33
		l-45.5,33l17.4-53.4l-45.4-33h56L914.2,810.9z"/>
	<path id="path406" inkscape:connector-curvature="0" class="st1" d="M736.8,917.2l12.8,39.7h41.8l-33.7,24.6l12.9,39.7l-33.7-24.6
		l-33.7,24.6l12.9-39.7l-33.7-24.6H724L736.8,917.2z"/>
	<path id="path410" inkscape:connector-curvature="0" class="st1" d="M664.2,589.5l17.4,53.4h56l-45.4,33l17.4,53.4l-45.4-33
		l-45.4,33l17.4-53.4l-45.4-33h56L664.2,589.5z"/>
	<path id="path414" inkscape:connector-curvature="0" class="st1" d="M420.9,806.4l17.4,53.4h56l-45.4,33l17.4,53.4l-45.4-33
		l-45.4,33l17.4-53.4l-45.4-33h56.2L420.9,806.4z"/>
	<g>
		<g id="g418">
			<g id="g424" transform="translate(589.745,340.8844)">
				<path id="path426" inkscape:connector-curvature="0" class="st2" d="M-364.3,296.4c-4.1-1.9-17.2-6.6-26,6.4
					c-9.8,14.7,1.3,29,15,38.2c13.7,9.2,31.1,14,41-0.6c7.1-10.6,2.5-19.6-5.8-27.9l20.7-30.8c20.6,13.8,31.1,45.2,11.1,74.9
					c-22.1,33-57.9,36-88.1,15.8c-32.1-21.6-39.8-56-18.6-87.4c18.9-27.8,44-33.4,71.2-19L-364.3,296.4z"/>
			</g>
			<g id="g428" transform="translate(592.4985,350.9416)">
				<path id="path430" inkscape:connector-curvature="0" class="st2" d="M-338.2,181l56-45.1c16.7-13.5,38.6-15.8,53.1,2.2
					c8,9.9,11.9,24,5,35.5c10.5-3.3,22.5,1.5,33.2,12.5c4.1,4.3,13.5,15.6,19.7,17.9l-29.4,23.7c-5.3-3.7-9.8-8.2-14.2-12.7
					c-8.1-8.4-16.5-17.4-28.2-8l-15.6,12.6l26.8,33.3l-29.4,23.7L-338.2,181z M-275.1,199.1l15.4-12.4c5.5-4.4,12.2-11.4,5.4-19.9
					c-4.9-6-11-6.8-22.2,2.3l-13.8,11.1L-275.1,199.1z"/>
			</g>
			<g id="g432" transform="translate(618.911,358)">
				<path id="path434" inkscape:connector-curvature="0" class="st2" d="M-88,100.1c12.4,31.7,1.2,53.6-33.7,67.1
					c-34.9,13.6-58.1,5.2-70.5-26.5l-27.4-70.1l35.2-13.7l24.3,62.2c4.5,11.6,10.2,26.2,27.4,19.5c16.7-6.5,11-21,6.5-32.8
					l-24.3-62.2l35.2-13.7L-88,100.1z"/>
			</g>
		</g>
	</g>
	<g id="g436" transform="matrix(2.4832558,0,0,2.4832558,241.00313,341.51621)">
		<path id="path438" inkscape:connector-curvature="0" class="st2" d="M133.9,50.4L155,24l-21.6,1.6L132.6,13l41.6-3l0.8,11
			l-21.3,27.3l24.3-1.7l1,12.6l-44,3.2L133.9,50.4z"/>
	</g>
	<g id="g440" transform="matrix(2.4832558,0,0,2.4832558,280.2798,364.24321)">
		<path id="path442" inkscape:connector-curvature="0" class="st2" d="M184.8,2.8l40,8.7l-2.7,12.4L197,18.4l-1.3,6l22.7,5
			l-2.5,11.5l-22.7-5l-1.3,6l25.9,5.6L215,59.8l-40.7-8.8L184.8,2.8z"/>
	</g>
	<g id="g444" transform="matrix(2.4832558,0,0,2.4832558,317.29173,353.67174)">
		<path id="path446" inkscape:connector-curvature="0" class="st2" d="M232.7,25l13.8,6.5l-20.9,44.7l-13.8-6.5L232.7,25z"/>
	</g>
	<g id="g448" transform="matrix(2.4832558,0,0,2.4832558,-1305.9887,-545.41834)">
		<g>
			<g id="g450">
				<g id="g456" transform="translate(662.1696,357.7587)">
					<path id="path458" inkscape:connector-curvature="0" class="st2" d="M260,47.4l22.7,17.9c6.8,5.3,9.7,13.7,4,21
						c-3.1,4-8.3,6.8-13.5,5.2c2.3,3.8,1.5,8.9-1.9,14.1c-1.3,2-5,6.7-5.2,9.4l-12-9.4c1-2.5,2.3-4.6,3.8-6.8
						c2.6-4,5.3-8.1,0.5-11.7l-6.4-5l-10.7,13.6l-12-9.4L260,47.4z M258.6,73.8l6.3,5c2.3,1.7,5.6,3.8,8.3,0.3
						c1.9-2.5,1.7-5-2.9-8.5l-5.6-4.4L258.6,73.8z"/>
				</g>
				<g id="g460" transform="translate(678.3562,341.9826)">
					<path id="path462" inkscape:connector-curvature="0" class="st2" d="M312,129.7c8.4,12.4,5.2,26.7-7.3,35.2
						c-12.5,8.5-27.1,6.3-35.5-6.1c-8.4-12.4-5.2-26.7,7.3-35.2C289.1,115,303.6,117.3,312,129.7 M279.4,151.8
						c2.2,3.2,7.7,6.7,16.7,0.5c9.1-6.1,7.9-12.5,5.7-15.7c-2.2-3.2-7.7-6.7-16.7-0.5C276,142.3,277.2,148.6,279.4,151.8"/>
				</g>
			</g>
		</g>
	</g>
	<g id="g464" transform="matrix(2.4832558,0,0,2.4832558,374.12973,221.13591)">
		<path id="path466" inkscape:connector-curvature="0" class="st2" d="M306.3,303.3l-3-40.7l12.6-1l1.9,25.5l6.1-0.4l-1.7-23.3
			l11.7-0.9l1.7,23.3l6.1-0.4l-1.9-26.3l12.6-1l3.1,41.5L306.3,303.3z"/>
	</g>
	<g>
		<g id="g470">
			<g id="g476" transform="translate(674.2648,295.6181)">
				<path id="path478" inkscape:connector-curvature="0" class="st2" d="M436.2,815.7l14.1-65.6c6.8-31.6,26.1-34.5,38.3-31.8
					c12.1,2.6,17.4,9.9,20.4,19.8c6-9.9,16.7-18.2,34.4-14.3c24,5.2,32,28.7,27.5,49.8l-14.7,68L436.2,815.7z M490.9,788.7l4.2-19.5
					c1.6-7.8,0.5-13-7.2-14.7c-6-1.3-9.3,3.2-11,10.8l-4.2,19.5L490.9,788.7z M535.5,798.3l4.6-21.7c1.6-7.8,0.9-14.9-8.3-16.9
					c-7-1.5-11.9,1.8-13.7,10.6l-5,23.2L535.5,798.3z"/>
			</g>
			<g id="g480" transform="translate(679.5024,289.3026)">
				<path id="path482" inkscape:connector-curvature="0" class="st2" d="M485.9,888.2c29.6,16.6,34.9,40.6,16.6,73.3
					c-18.3,32.7-41.6,40.9-71.2,24.3l-65.7-36.9l18.4-33l58.3,32.7c10.9,6.1,24.6,13.8,33.5-2.3c8.7-15.6-4.9-23.3-15.8-29.3
					l-58.3-32.7l18.4-33L485.9,888.2z"/>
			</g>
		</g>
	</g>
	<g id="g484" transform="matrix(2.4832558,0,0,2.4832558,333.20766,138.08615)">
		<path id="path486" inkscape:connector-curvature="0" class="st2" d="M253.3,477.8L264,467l25.9,26l15.5-15.4l8.9,8.9l-26.2,26.3
			L253.3,477.8z"/>
	</g>
	<g>
		<g id="g490">
			<g id="g496" transform="translate(657.089,267.9381)">
				<path id="path498" inkscape:connector-curvature="0" class="st2" d="M273.6,1133.2c-2.8-3.6-12.4-13.8-26-6.1
					c-15.4,8.5-12.1,26.3-4.1,40.7s21.2,26.7,36.8,18.1c11.1-6.3,11.1-16.4,7.5-27.6l32.4-18c12,21.7,7.1,54.3-24.3,71.8
					c-34.7,19.2-67.9,5.6-85.5-26.1c-18.8-33.7-9.8-68,23.2-86.3c29.5-16.2,54.3-9.7,72.1,15.6L273.6,1133.2z"/>
			</g>
		</g>
	</g>
	<g id="g500" transform="matrix(2.4832558,0,0,2.4832558,257.32781,112.5615)">
		<path id="path502" inkscape:connector-curvature="0" class="st2" d="M155,531.4l40.9-2.5l0.8,12.6l-25.7,1.6l0.4,6.1l23.3-1.4
			l0.8,11.7l-23.3,1.4l0.3,6.1l26.4-1.6l0.8,12.6l-41.6,2.6L155,531.4z"/>
	</g>
	<g id="g504" transform="matrix(2.4832558,0,0,2.4832558,232.88487,109.32483)">
		<path id="path506" inkscape:connector-curvature="0" class="st2" d="M123.4,538.2l-13.5-3l2.7-12.4l41.9,9.2l-2.7,12.4l-13.5-2.9
			l-7.9,35.9l-14.9-3.2L123.4,538.2z"/>
	</g>
	<g id="g508" transform="matrix(2.4832558,0,0,2.4832558,-1305.9887,-545.41834)">
		<g>
			<g id="g510">
				<g id="g516" transform="translate(605.7771,273.1172)">
					<path id="path518" inkscape:connector-curvature="0" class="st2" d="M78.5,488.9l25.4,13.9c7.5,4.1,11.9,12,7.3,20.2
						c-2.5,4.5-7.1,8.1-12.4,7.3c2.9,3.3,2.9,8.6,0.4,14.3c-1,2.3-3.8,7.4-3.7,10l-13.4-7.3c0.5-2.6,1.5-5,2.6-7.2
						c1.9-4.3,3.9-8.8-1.4-11.7l-7.1-3.9l-8.3,15.1l-13.3-7.4L78.5,488.9z M81.5,515.1l7,3.9c2.5,1.4,6.1,2.8,8.2-1.1
						c1.5-2.7,0.9-5.2-4.2-8l-6.3-3.4L81.5,515.1z"/>
				</g>
				<g id="g520" transform="translate(599.6627,279.1333)">
					<path id="path522" inkscape:connector-curvature="0" class="st2" d="M58.9,457.5c10.3,10.8,9.6,25.5-1.3,36s-25.7,10.7-36-0.1
						c-10.3-10.9-9.6-25.5,1.3-36C33.8,446.9,48.5,446.7,58.9,457.5 M30.4,484.9c2.7,2.8,8.6,5.3,16.6-2.3c8-7.7,5.7-13.7,3-16.5
						c-2.7-2.8-8.6-5.3-16.6,2.3C25.5,475.9,27.7,482.1,30.4,484.9"/>
				</g>
				<g id="g524" transform="translate(589.5487,294.1488)">
					<path id="path526" inkscape:connector-curvature="0" class="st2" d="M26.4,379.2L37.9,402c6,12-0.5,20.6-6.9,23.8
						c-10.7,5.4-19.3,0.8-24.5-9.4l-4.1-8l-13.4,6.8l-6.9-13.6L26.4,379.2z M13,403.1l2.7,5.3c1.7,3.6,3.9,7.1,8.3,4.9
						c4-2,2.7-5.3,1-8.6l-3-6L13,403.1z"/>
				</g>
				<g id="g528" transform="translate(579.7902,301.6102)">
					<path id="path530" inkscape:connector-curvature="0" class="st2" d="M-5.1,340.3c-1.2,0.2-2.3,0.6-3.1,1.2
						c-2.7,1.6-2.7,5.1-2.2,7.9c0.4,2.5,2,6,5.6,5.3c2.5-0.4,2.8-2.7,3.6-11.5c0.6-8.1,1.1-17.2,10.9-19.2
						c11.2-2.2,17.9,6.5,19.8,16.4c2,10.6-0.1,20.6-11.9,23.3l-2.8-14.1c1.9-0.1,2.9-1.2,3.6-2.5c0.6-1.4,0.6-3.1,0.3-4.6
						c-0.4-2-1.6-5.3-4.3-4.7c-3.4,1-2.8,8-3.3,15.3c-0.5,7.2-2.4,14.7-11.3,16.4c-12.5,2.4-18.9-8.4-21-19.2
						c-1.1-5.5-2.2-21.6,13.3-24.7L-5.1,340.3z"/>
				</g>
			</g>
		</g>
	</g>
	<g id="g532" transform="matrix(2.4832558,0,0,2.4832558,152.79267,245.71319)">
		<path id="path534" inkscape:connector-curvature="0" class="st2" d="M19.5,251.7l-3.2,40.7l-12.6-1l2-25.5l-6.1-0.5l-1.8,23.3
			l-11.7-1l1.8-23.3l-6.1-0.5l-2.2,26.3l-12.6-1.1l3.3-41.5L19.5,251.7z"/>
	</g>
</g>
</svg>
